HIERARCHY
ROOT Hips
{
	OFFSET -0.001795 -0.223333 0.028219
	CHANNELS 6 Xposition Yposition Zposition Zrotation Yrotation Xrotation 
	JOINT LeftUpLeg
	{
		OFFSET 0.069520 -0.091406 -0.006815
		CHANNELS 3 Zrotation Yrotation Xrotation
		JOINT LeftLeg
		{
			OFFSET 0.034277 -0.375199 -0.004496
			CHANNELS 3 Zrotation Yrotation Xrotation
			JOINT LeftFoot
			{
				OFFSET -0.013596 -0.397961 -0.043693
				CHANNELS 3 Zrotation Yrotation Xrotation
				JOINT LeftToe
				{
					OFFSET 0.026358 -0.055791 0.119288
					CHANNELS 3 Zrotation Yrotation Xrotation
					End Site
					{
						OFFSET 0.000000 0.000000 0.000000
					}
				}
			}
		}
	}
	JOINT RightUpLeg
	{
		OFFSET -0.067670 -0.090522 -0.004320
		CHANNELS 3 Zrotation Yrotation Xrotation
		JOINT RightLeg
		{
			OFFSET -0.038290 -0.382569 -0.008850
			CHANNELS 3 Zrotation Yrotation Xrotation
			JOINT RightFoot
			{
				OFFSET 0.015774 -0.398415 -0.042312
				CHANNELS 3 Zrotation Yrotation Xrotation
				JOINT RightToe
				{
					OFFSET -0.025372 -0.048144 0.123348
					CHANNELS 3 Zrotation Yrotation Xrotation
					End Site
					{
						OFFSET 0.000000 0.000000 0.000000
					}
				}
			}
		}
	}
	JOINT Spine
	{
		OFFSET -0.002533 0.108963 -0.026696
		CHANNELS 3 Zrotation Yrotation Xrotation
		JOINT Spine1
		{
			OFFSET 0.005487 0.135180 0.001092
			CHANNELS 3 Zrotation Yrotation Xrotation
			JOINT Spine2
			{
				OFFSET 0.001457 0.052922 0.025425
				CHANNELS 3 Zrotation Yrotation Xrotation
				JOINT Neck
				{
					OFFSET -0.002778 0.213870 -0.042857
					CHANNELS 3 Zrotation Yrotation Xrotation
					JOINT Head
					{
						OFFSET 0.005152 0.064970 0.051349
						CHANNELS 3 Zrotation Yrotation Xrotation
						End Site
						{
							OFFSET 0.000000 0.000000 0.000000
						}
					}
				}
				JOINT LeftShoulder
				{
					OFFSET 0.078845 0.121749 -0.034090
					CHANNELS 3 Zrotation Yrotation Xrotation
					JOINT LeftArm
					{
						OFFSET 0.090977 0.030469 -0.008868
						CHANNELS 3 Zrotation Yrotation Xrotation
						JOINT LeftForeArm
						{
							OFFSET 0.259612 -0.012772 -0.027456
							CHANNELS 3 Zrotation Yrotation Xrotation
							JOINT LeftHand
							{
								OFFSET 0.249234 0.008986 -0.001171
								CHANNELS 3 Zrotation Yrotation Xrotation
								End Site
								{
									OFFSET 0.000000 0.000000 0.000000
								}
							}
						}
					}
				}
				JOINT RightShoulder
				{
					OFFSET -0.081759 0.118833 -0.038615
					CHANNELS 3 Zrotation Yrotation Xrotation
					JOINT RightArm
					{
						OFFSET -0.096012 0.032551 -0.009143
						CHANNELS 3 Zrotation Yrotation Xrotation
						JOINT RightForeArm
						{
							OFFSET -0.253742 -0.013329 -0.021401
							CHANNELS 3 Zrotation Yrotation Xrotation
							JOINT RightHand
							{
								OFFSET -0.255298 0.007772 -0.005559
								CHANNELS 3 Zrotation Yrotation Xrotation
								End Site
								{
									OFFSET 0.000000 0.000000 0.000000
								}
							}
						}
					}
				}
			}
		}
	}
}
MOTION
Frames: 9
Frame Time: 0.050000
-0.005320 0.945699 -0.020574 -4.263457 13.271545 24.487737 6.885288 -0.797468 -3.708188 4.842605 0.279644 -10.223974 8.089653 18.933770 20.131531 0.000000 0.000000 0.000000 1.676444 2.192590 -25.707184 -1.304718 0.022873 -2.574141 3.879994 5.498031 9.762706 0.000000 0.000000 0.000000 11.539679 -0.212331 -8.582269 4.716297 -1.460927 -7.152769 -8.968922 -6.091225 -1.925985 9.378839 -3.536986 -17.644210 0.000000 0.000000 0.000000 5.029757 -25.903445 8.502085 3.259342 -66.383344 -5.939995 24.155873 -16.751667 -2.788753 0.000000 0.000000 0.000000 8.646113 4.632904 1.381852 53.151700 41.912664 15.713670 -0.863733 55.005924 2.075034 0.000000 0.000000 0.000000 
-0.005786 0.945907 -0.021480 -4.234304 13.189641 24.505088 6.643630 -0.783495 -3.905339 5.533105 0.303999 -10.610258 7.626671 18.396603 20.290506 0.000000 0.000000 0.000000 1.510944 2.179877 -25.888800 -1.243354 0.023076 -2.457860 3.872770 5.197082 10.431624 0.000000 0.000000 0.000000 11.759088 -0.208146 -8.711338 4.242083 -1.307473 -6.860893 -8.526067 -5.126331 -2.033517 9.729025 -3.777857 -17.060099 0.000000 0.000000 0.000000 4.689130 -25.358692 8.333916 2.466321 -66.848886 -5.697374 26.810590 -17.642813 -3.378965 0.000000 0.000000 0.000000 8.627601 4.817275 1.566349 52.421614 41.735996 15.405084 -0.928335 53.688823 2.131174 0.000000 0.000000 0.000000 
-0.006223 0.945589 -0.022142 -3.880206 13.353089 24.732386 6.402787 -0.779225 -4.192661 5.585754 0.316125 -10.809079 7.330200 18.103051 20.620470 0.000000 0.000000 0.000000 1.088124 2.113475 -26.176764 -1.567108 0.052195 -2.482559 3.820390 5.181314 10.286904 0.000000 0.000000 0.000000 11.823211 -0.211838 -8.852398 4.226730 -1.363415 -6.137258 -9.022085 -3.915780 -2.493802 10.276545 -4.057627 -16.528508 0.000000 0.000000 0.000000 3.637313 -25.023238 8.275455 -0.021436 -65.874143 -4.372658 30.696172 -19.580329 -4.517006 0.000000 0.000000 0.000000 9.445481 4.358448 1.530437 51.641199 40.897779 14.813696 -0.508377 53.368196 2.577042 0.000000 0.000000 0.000000 
-0.006375 0.944962 -0.022570 -3.546941 13.255051 24.919187 5.758004 -0.734366 -4.274153 6.203237 0.325594 -10.910588 7.292770 18.063636 20.557407 0.000000 0.000000 0.000000 0.946828 2.111348 -26.617960 -1.852030 0.083465 -2.387303 3.664139 4.847892 10.308521 0.000000 0.000000 0.000000 12.062281 -0.208357 -9.036606 3.945337 -1.282819 -5.818420 -8.938034 -2.832377 -2.660149 10.335437 -4.133629 -15.958445 0.000000 0.000000 0.000000 2.181412 -24.246857 8.088921 -4.656731 -64.995974 -1.783372 34.844461 -21.250886 -5.818628 0.000000 0.000000 0.000000 9.453203 4.157736 1.574906 51.403392 39.302891 13.981599 -0.027854 54.018656 3.058688 0.000000 0.000000 0.000000 
-0.006313 0.944547 -0.022887 -3.131634 13.051366 24.742080 5.125584 -0.677433 -4.149185 6.175600 0.350433 -11.306219 7.380192 18.176127 20.654035 0.000000 0.000000 0.000000 0.542702 2.046848 -26.533745 -1.997113 0.118481 -2.006521 3.431876 4.377478 10.260707 0.000000 0.000000 0.000000 12.034120 -0.209325 -8.922136 3.855844 -1.291362 -5.334679 -9.202065 -2.199378 -2.786468 10.456967 -4.129125 -16.090213 0.000000 0.000000 0.000000 1.096799 -23.550338 7.884077 -8.629915 -63.459518 0.388577 37.686549 -23.196796 -7.086650 0.000000 0.000000 0.000000 9.641080 3.463052 1.340111 51.891975 37.440418 13.235772 0.114544 56.182808 3.464034 0.000000 0.000000 0.000000 
-0.006221 0.944071 -0.023361 -2.656885 12.537578 24.818372 4.537602 -0.632440 -4.147352 6.270447 0.357293 -11.362878 7.482938 18.297323 20.934786 0.000000 0.000000 0.000000 0.008302 1.984835 -26.578945 -1.877247 0.130442 -1.555351 3.152876 3.892307 9.907874 0.000000 0.000000 0.000000 11.960785 -0.213380 -8.799249 3.542539 -1.141377 -5.676874 -8.934850 -1.952590 -2.272332 10.506949 -4.121537 -16.413422 0.000000 0.000000 0.000000 -0.711592 -22.983631 7.802629 -12.881631 -62.211479 2.704650 39.041844 -25.063826 -8.027740 0.000000 0.000000 0.000000 9.732338 2.957602 1.099713 52.138420 36.009223 12.533329 -0.346910 58.314766 3.419258 0.000000 0.000000 0.000000 
-0.006379 0.943392 -0.024131 -2.343826 11.985937 24.842826 4.092993 -0.589645 -3.968029 6.152876 0.387942 -11.799834 7.884692 18.746930 21.081032 0.000000 0.000000 0.000000 -0.209969 1.974381 -26.487884 -1.912843 0.139796 -1.414441 3.073094 3.849753 9.447690 0.000000 0.000000 0.000000 11.884545 -0.169814 -9.046801 4.043111 -1.392525 -5.092413 -9.239752 -2.029211 -2.245214 10.996269 -4.357085 -16.728257 0.000000 0.000000 0.000000 -1.670653 -22.491558 7.695492 -15.981029 -61.250200 4.337961 39.846383 -25.879545 -8.510631 0.000000 0.000000 0.000000 9.150617 2.819853 0.998774 52.750019 35.254343 12.361839 -3.040176 60.522156 2.001532 0.000000 0.000000 0.000000 
-0.006822 0.943030 -0.025176 -2.231505 11.509326 24.580672 3.870627 -0.561146 -3.811910 6.148092 0.376779 -11.599066 8.208962 19.121384 21.391577 0.000000 0.000000 0.000000 -0.268716 1.992852 -26.561093 -1.788169 0.158809 -0.803166 3.146830 3.968833 9.386210 0.000000 0.000000 0.000000 11.807239 -0.186696 -8.688724 4.346649 -1.499043 -5.283442 -8.915031 -2.876401 -1.955934 10.758133 -4.329958 -16.676741 0.000000 0.000000 0.000000 -2.760743 -22.529356 7.902256 -18.000048 -60.210105 5.437781 39.793877 -26.295733 -8.535088 0.000000 0.000000 0.000000 8.685270 2.974670 0.932344 52.878949 34.759102 12.062185 -4.734089 62.590237 0.815817 0.000000 0.000000 0.000000 
-0.007404 0.942389 -0.026493 -2.001361 11.206173 24.742340 3.598797 -0.541513 -3.799367 6.067448 0.380569 -11.633992 8.593009 19.532436 21.042179 0.000000 0.000000 0.000000 -0.405188 1.994936 -26.811404 -1.806229 0.175644 -0.501489 3.229090 4.284479 8.971759 0.000000 0.000000 0.000000 11.805651 -0.211336 -8.477553 4.618201 -1.606291 -5.301092 -8.888008 -3.575651 -1.393819 10.691723 -4.311493 -17.015053 0.000000 0.000000 0.000000 -2.939949 -22.883888 8.161372 -18.481298 -60.746430 5.856617 39.627664 -26.281687 -8.389049 0.000000 0.000000 0.000000 8.202982 3.022911 0.868413 52.787511 34.731716 11.917050 -8.352328 64.308181 -1.560654 0.000000 0.000000 0.000000 
